<?xml version="1.0" standalone="no"?>
<!DOCTYPE svg PUBLIC "-//W3C//DTD SVG 20010904//EN"
 "http://www.w3.org/TR/2001/REC-SVG-20010904/DTD/svg10.dtd">
<svg version="1.0" xmlns="http://www.w3.org/2000/svg"
 width="496.000000pt" height="496.000000pt" viewBox="0 0 496.000000 496.000000"
 preserveAspectRatio="xMidYMid meet">
<metadata>
Created by potrace 1.14, written by Peter Selinger 2001-2017
</metadata>
<g transform="translate(0.000000,496.000000) scale(0.100000,-0.100000)"
fill="#000000" stroke="none">
<path d="M1568 4793 c-3 -4 -4 -62 -4 -128 1 -106 3 -120 19 -123 14 -3 17 4
17 42 l0 46 45 0 c35 0 52 6 70 25 43 42 29 113 -26 133 -33 12 -116 15 -121
5z m113 -38 c48 -30 17 -95 -46 -95 l-35 0 0 54 0 54 33 -2 c17 -1 39 -6 48
-11z"/>
<path d="M802 4175 c-72 -52 -72 -182 1 -229 52 -34 131 -24 167 21 41 53 14
74 -29 23 -52 -61 -146 -31 -156 49 -6 44 18 98 49 112 37 17 95 3 108 -26 12
-26 34 -39 43 -25 7 11 -11 47 -33 69 -22 22 -122 26 -150 6z"/>
<path d="M1564 4171 c-48 -29 -70 -121 -42 -174 16 -31 56 -67 76 -68 9 0 27
-2 40 -5 35 -6 90 21 112 58 39 65 19 161 -42 194 -35 20 -108 17 -144 -5z
m147 -42 c10 -12 19 -29 20 -38 0 -9 2 -25 4 -35 6 -32 -24 -77 -61 -92 -30
-12 -39 -12 -69 0 -73 31 -80 150 -11 185 32 16 94 6 117 -20z"/>
<path d="M2317 4183 c-4 -3 -7 -62 -7 -130 l0 -123 68 0 c81 0 126 23 148 75
30 73 -14 164 -87 179 -41 8 -114 8 -122 -1z m119 -32 c6 -1 23 -13 38 -27 34
-35 36 -92 3 -130 -18 -21 -35 -28 -75 -32 -29 -2 -52 -1 -53 4 -1 12 -1 122
0 160 1 31 3 32 39 29 20 -2 42 -4 48 -4z"/>
<path d="M3119 4140 c-1 -46 -1 -147 0 -187 1 -22 5 -23 76 -23 65 0 75 2 75
18 0 14 -9 17 -57 17 l-57 0 -2 37 c-3 41 3 44 64 43 32 -1 42 3 42 15 0 13
-9 16 -45 15 -49 -3 -60 6 -61 48 0 31 -4 29 58 31 26 1 50 5 54 9 15 15 -10
22 -77 22 l-69 1 -1 -46z"/>
<path d="M3470 4050 l0 -56 313 1 c171 0 319 -2 327 -6 13 -6 15 -165 14
-1351 -1 -1507 5 -1379 -76 -1543 -39 -78 -124 -208 -177 -269 -63 -73 -188
-193 -277 -266 -49 -40 -198 -133 -272 -169 -295 -146 -438 -143 -769 14 -325
154 -554 370 -809 760 -82 126 -77 122 -124 88 -22 -15 -40 -32 -40 -36 0 -9
143 -224 202 -305 242 -328 566 -569 923 -690 121 -41 137 -44 237 -48 353
-15 902 357 1160 786 57 95 114 238 125 315 5 33 9 683 8 1445 l0 1385 -382 0
-383 0 0 -55z"/>
<path d="M1606 3575 c-66 -23 -96 -83 -81 -157 14 -67 65 -109 125 -103 14 1
33 3 43 4 21 1 63 43 70 71 7 27 -29 27 -38 0 -8 -26 -39 -42 -83 -42 -52 0
-82 37 -82 100 1 67 34 102 98 102 28 0 62 -26 62 -47 0 -6 9 -13 20 -16 28
-7 26 24 -2 58 -30 34 -84 46 -132 30z"/>
<path d="M1565 2960 c-4 -6 -7 -57 -6 -113 0 -141 -1 -137 16 -137 16 0 16 2
19 67 0 23 4 45 8 49 8 7 107 -93 108 -108 0 -5 12 -8 26 -8 24 0 23 4 -35 71
l-61 71 29 37 c17 21 37 44 46 51 8 7 15 16 15 21 0 23 -29 4 -82 -52 l-57
-61 1 49 c0 26 0 54 -1 61 -1 15 -17 16 -26 2z"/>
<path d="M1582 2352 c-8 -2 -12 -41 -12 -128 l0 -124 80 0 c65 0 78 3 74 15
-4 9 -24 15 -62 17 l-56 3 -1 37 c-1 42 3 45 63 43 33 -1 42 2 42 16 0 14 -8
17 -46 15 -46 -2 -60 9 -59 44 1 29 14 36 64 35 40 -1 51 2 51 15 0 12 -13 15
-63 16 -35 0 -69 -2 -75 -4z"/>
<path d="M1545 1742 c-13 -13 11 -29 40 -27 40 2 37 13 36 -142 0 -75 1 -83
19 -83 18 0 19 8 19 105 0 58 3 110 6 115 4 6 19 8 35 5 30 -5 44 4 32 21 -6
9 -178 14 -187 6z"/>
</g>
</svg>
